<svg xmlns="http://www.w3.org/2000/svg" fill="none" viewBox="0 0 24 24" stroke-width="1.5" stroke="#059669" class="w-6 h-6">
  <path stroke-linecap="round" stroke-linejoin="round" d="M4.26 10.147a60.438 60.438 0 0 0-.491 6.347A48.62 48.62 0 0 1 12 20.904a48.62 48.62 0 0 1 8.232-4.41 60.46 60.46 0 0 0-.491-6.347m-15.482 0a50.57 50.57 0 0 0-2.658-.813A59.906 59.906 0 0 1 12 3.493a59.902 59.902 0 0 1 10.399 5.84a50.58 50.58 0 0 0-2.657.814m-15.482 0A50.697 50.697 0 0 1 12 13.489a50.702 50.702 0 0 1 7.74-3.342M12 13.489v3.692m-5.462-6.52c.074-.5.194-.997.358-1.487m10.208 1.487a12.096 12.096 0 0 1-.358-1.487" />
</svg>
