<svg xmlns="http://www.w3.org/2000/svg" width="25" height="25" viewBox="0 0 25 25">
  <g id="Duration" transform="translate(-20 -180)">
    <rect id="Rectangle_2327" data-name="Rectangle 2327" width="25" height="25" transform="translate(20 180)" fill="#fff"/>
    <g id="Group_411" data-name="Group 411" transform="translate(-22.006 180.136)">
      <path id="Path_362" data-name="Path 362" d="M57.536,2.273h4.545V.379a.379.379,0,0,1,.757,0V2.273h2.273a1.894,1.894,0,0,1,1.894,1.894V20.833a1.894,1.894,0,0,1-1.894,1.894H43.9a1.894,1.894,0,0,1-1.894-1.894V4.167A1.894,1.894,0,0,1,43.9,2.273h2.273V.379a.379.379,0,0,1,.757,0V2.273h4.545V.379a.379.379,0,0,1,.758,0V2.273h4.545V.379a.379.379,0,0,1,.758,0Zm0,.758V4.924a.379.379,0,1,1-.758,0V3.03H52.233V4.924a.379.379,0,1,1-.758,0V3.03H46.93V4.924a.379.379,0,1,1-.757,0V3.03H43.9a1.136,1.136,0,0,0-1.136,1.136V20.833A1.136,1.136,0,0,0,43.9,21.97H65.112a1.136,1.136,0,0,0,1.136-1.136V4.167A1.136,1.136,0,0,0,65.112,3.03H62.839V4.924a.379.379,0,1,1-.757,0V3.03ZM46.173,7.2H58.294A1.136,1.136,0,0,1,59.43,8.333v3.03A1.136,1.136,0,0,1,58.294,12.5H46.173a1.136,1.136,0,0,1-1.136-1.136V8.333A1.136,1.136,0,0,1,46.173,7.2Zm0,.758a.379.379,0,0,0-.379.379v3.03a.379.379,0,0,0,.379.379H58.294a.379.379,0,0,0,.379-.379V8.333a.379.379,0,0,0-.379-.379Z" transform="translate(0 1)"/>
    </g>
  </g>
</svg>
