<svg xmlns="http://www.w3.org/2000/svg" width="25" height="25"><path data-name="Rectangle 2327" fill="#fff" d="M0 0h25v25H0z"/><g data-name="Group 411"><path data-name="Path 362" d="M15.53 3.409h4.545V1.515a.379.379 0 0 1 .757 0v1.894h2.273a1.894 1.894 0 0 1 1.894 1.894v16.666a1.894 1.894 0 0 1-1.894 1.894H1.894A1.894 1.894 0 0 1 0 21.969V5.303a1.894 1.894 0 0 1 1.894-1.894h2.273V1.515a.379.379 0 0 1 .757 0v1.894h4.545V1.515a.379.379 0 0 1 .758 0v1.894h4.545V1.515a.379.379 0 0 1 .758 0Zm0 .758V6.06a.379.379 0 1 1-.758 0V4.166h-4.545V6.06a.379.379 0 1 1-.758 0V4.166H4.924V6.06a.379.379 0 1 1-.757 0V4.166H1.894A1.136 1.136 0 0 0 .758 5.302v16.667a1.136 1.136 0 0 0 1.136 1.137h21.212a1.136 1.136 0 0 0 1.136-1.136V5.303a1.136 1.136 0 0 0-1.136-1.137h-2.273V6.06a.379.379 0 1 1-.757 0V4.166ZM4.167 8.336h12.121a1.136 1.136 0 0 1 1.136 1.133v3.03a1.136 1.136 0 0 1-1.136 1.137H4.167A1.136 1.136 0 0 1 3.031 12.5V9.469a1.136 1.136 0 0 1 1.136-1.133Zm0 .758a.379.379 0 0 0-.379.379v3.03a.379.379 0 0 0 .379.379h12.121a.379.379 0 0 0 .379-.379V9.469a.379.379 0 0 0-.379-.379Z"/></g></svg>