<svg xmlns="http://www.w3.org/2000/svg" xmlns:xlink="http://www.w3.org/1999/xlink" width="137.922" height="140.206" viewBox="0 0 137.922 140.206">
  <defs>
    <clipPath id="clip-path">
      <rect id="Rectangle_1912" data-name="Rectangle 1912" width="137.922" height="140.206" fill="#074a76"/>
    </clipPath>
  </defs>
  <g id="Group_14732" data-name="Group 14732" transform="translate(-39)" opacity="0.09">
    <g id="Group_14731" data-name="Group 14731" transform="translate(39)" clip-path="url(#clip-path)">
      <path id="Path_5549" data-name="Path 5549" d="M2.123,0A2.123,2.123,0,0,0,0,2.122V65.847C0,94.733,10.586,115.5,34.927,137.16l2.817,2.509a2.121,2.121,0,0,0,2.841-.017L62.01,120.129a2.124,2.124,0,0,0,.065-3.076l-3.127-3.1c-11.791-11.391-22.8-24.5-23.242-41.623H57.633A2.123,2.123,0,0,0,59.757,70.2V2.124A2.123,2.123,0,0,0,57.633,0Z" transform="translate(75.219)" fill="#074a76"/>
      <path id="Path_5550" data-name="Path 5550" d="M266.689,0a2.122,2.122,0,0,0-2.122,2.122V65.847c0,28.886,10.586,49.657,34.927,71.313l2.818,2.509a2.121,2.121,0,0,0,2.841-.017l21.425-19.523a2.124,2.124,0,0,0,.065-3.076l-3.129-3.1c-11.79-11.391-22.8-24.5-23.242-41.623h21.722a2.122,2.122,0,0,0,2.122-2.122V2.124A2.122,2.122,0,0,0,321.993,0Z" transform="translate(-264.566)" fill="#074a76"/>
    </g>
  </g>
</svg>
