<svg xmlns="http://www.w3.org/2000/svg" width="25" height="25" viewBox="0 0 25 25">
  <path id="Time" d="M101.182,22.425h.011a8.791,8.791,0,0,1,8.78,8.78v.022a8.791,8.791,0,0,1-8.78,8.78h-.022a8.791,8.791,0,0,1-8.78-8.78V31.2a8.791,8.791,0,0,1,8.78-8.78Zm-.4,3.994a.4.4,0,1,1,.8,0v4.6l2.855,2.1a.4.4,0,0,1-.474.646l-3-2.2a.4.4,0,0,1-.186-.339v-4.8Zm-5.724-4.156a.4.4,0,0,1,0,.8h-2.4a.4.4,0,0,1-.432-.428v-2.4a.4.4,0,1,1,.8,0v1.511a12.526,12.526,0,1,1-2.285,2.6.4.4,0,1,1,.669.442,11.713,11.713,0,1,0,2.247-2.522h1.4Zm14.1,9.355H108.6a.4.4,0,1,1,0-.8h.556a7.989,7.989,0,0,0-7.576-7.576v.556a.4.4,0,1,1-.8,0v-.556A7.989,7.989,0,0,0,93.2,30.814h.556a.4.4,0,0,1,0,.8H93.2a7.989,7.989,0,0,0,7.576,7.576v-.556a.4.4,0,0,1,.8,0v.556a7.989,7.989,0,0,0,7.576-7.576Z" transform="translate(-88.681 -18.718)"/>
</svg>
